<svg width="44" height="44" viewBox="0 0 44 44" fill="none" xmlns="http://www.w3.org/2000/svg">
    <circle cx="22" cy="22" r="22" fill="#FFE200"/>
    <g clip-path="url(#clip0_1595_5675)">
        <path d="M17.2146 32.7791C17.2983 32.1779 17.7695 31.7469 18.2671 31.816C18.7647 31.8856 19.1001 32.4291 19.0168 33.03C18.933 33.6313 18.4619 34.0622 17.9642 33.9927C17.4666 33.9232 17.1308 33.38 17.2146 32.7791ZM22.4887 10C23.6099 10 24.519 10.909 24.519 12.0303C24.519 13.1515 23.6099 14.0606 22.4887 14.0606C21.3674 14.0606 20.4584 13.1515 20.4584 12.0303C20.4584 10.909 21.3674 10 22.4887 10ZM24.2722 27.7148L15.8197 29.9032C15.2973 30.0382 14.9526 30.4545 15.0509 30.8338L15.2184 31.4827C15.316 31.8616 15.8193 32.0587 16.3417 31.9234L24.7942 29.7341C25.3162 29.5983 27.0957 29.0186 26.7359 28.1791C26.3761 27.3355 24.7942 27.5794 24.2722 27.7148ZM22.7383 31.5656C22.8221 30.9643 23.2937 30.5338 23.7921 30.6033C24.2901 30.6728 24.6259 31.2164 24.5426 31.8169C24.4584 32.4177 23.9868 32.8487 23.4888 32.7787C22.9904 32.71 22.6546 32.1665 22.7383 31.5656ZM28.9609 15.3676C28.9129 14.8574 28.4604 14.4838 27.9502 14.5322C27.488 14.5761 26.9424 14.646 26.3663 14.72C25.2552 14.8627 23.9185 15.0322 22.8708 15.0448C22.4216 14.5163 21.6671 14.2569 20.9914 14.3695C19.5758 13.1755 17.7862 11.5676 16.9528 10.6196C16.6145 10.2354 16.0291 10.1976 15.6441 10.5358C15.2599 10.8741 15.2221 11.4595 15.5595 11.8441C16.4767 12.8865 18.2602 14.483 19.636 15.6506C19.6339 15.6591 19.6307 15.6672 19.6282 15.6762C19.3046 16.9771 19.3994 18.422 18.6533 19.5774C18.2582 20.1901 18.2809 20.7881 18.5387 21.2682C18.5411 21.3304 18.544 21.393 18.5525 21.4556C18.792 23.2217 18.2525 24.9418 17.045 26.2447C15.9628 27.4119 17.7077 29.165 18.7932 27.9929C20.3385 26.3248 21.0418 24.3311 21.0324 22.1687C21.1402 22.122 21.2447 22.063 21.3459 21.9915C21.702 22.2033 22.0045 22.4822 22.1643 22.8806C22.5111 23.74 22.1285 24.7377 21.8085 25.541C21.2186 27.0273 23.5673 27.8026 24.1527 26.3289C24.7149 24.9133 25.0804 23.19 24.3649 21.752C23.9498 20.919 23.3071 20.3136 22.5546 19.8648C22.831 18.9042 22.9237 17.9057 23.151 16.895C24.2377 16.8617 25.4768 16.7031 26.6025 16.5588C27.1632 16.4864 27.6937 16.4185 28.1263 16.3775C28.2096 16.3693 28.2885 16.3506 28.3661 16.3218C28.7479 16.1787 29.0011 15.7929 28.9609 15.3676Z" fill="#373737"/>
        <path d="M25.2644 20.3906L25.2645 20.3909L25.2644 20.3906ZM25.2644 20.3906L25.2638 20.3897M25.2644 20.3906L25.2638 20.3897M25.2638 20.3897L25.2637 20.3895L25.2638 20.3897Z" fill="#373737" stroke="#373737"/>
    </g>
    <defs>
        <clipPath id="clip0_1595_5675">
            <rect width="24" height="24" fill="white" transform="translate(10 10)"/>
        </clipPath>
    </defs>
</svg>
