<svg width="10" height="10" viewBox="0 0 10 10" fill="none" xmlns="http://www.w3.org/2000/svg">
<path fill-rule="evenodd" clip-rule="evenodd" d="M9.47108 0.52827C9.73143 0.788619 9.73143 1.21073 9.47108 1.47108L1.47108 9.47108C1.21073 9.73143 0.788619 9.73143 0.52827 9.47108C0.26792 9.21073 0.26792 8.78862 0.52827 8.52827L8.52827 0.52827C8.78862 0.26792 9.21073 0.26792 9.47108 0.52827Z" fill="white"/>
<path fill-rule="evenodd" clip-rule="evenodd" d="M0.52827 0.52827C0.788619 0.26792 1.21073 0.26792 1.47108 0.52827L9.47108 8.52827C9.73143 8.78862 9.73143 9.21073 9.47108 9.47108C9.21073 9.73143 8.78862 9.73143 8.52827 9.47108L0.52827 1.47108C0.26792 1.21073 0.26792 0.788619 0.52827 0.52827Z" fill="white"/>
</svg>
