<svg width="16" height="16" viewBox="0 0 16 16" fill="none" xmlns="http://www.w3.org/2000/svg">
<circle cx="8" cy="8" r="8" fill="#FFE200"/>
<path d="M5.96894 14.0485C6.01324 13.7304 6.26246 13.5025 6.52566 13.5391C6.78886 13.5758 6.96626 13.8633 6.92218 14.1812C6.87789 14.4992 6.62866 14.7271 6.36546 14.6903C6.10226 14.6536 5.92465 14.3663 5.96894 14.0485ZM8.75856 2C9.35162 2 9.83243 2.48081 9.83243 3.07387C9.83243 3.66693 9.35162 4.14774 8.75856 4.14774C8.1655 4.14774 7.68469 3.66693 7.68469 3.07387C7.68469 2.48081 8.1655 2 8.75856 2ZM9.7019 11.3698L5.23117 12.5273C4.95485 12.5987 4.7725 12.8189 4.82454 13.0195L4.91313 13.3627C4.96474 13.5631 5.23095 13.6674 5.50727 13.5958L9.97801 12.4379C10.2541 12.3661 11.1953 12.0594 11.005 11.6154C10.8147 11.1692 9.97801 11.2982 9.7019 11.3698ZM8.89059 13.4066C8.93488 13.0886 9.18432 12.8609 9.44795 12.8976C9.71137 12.9344 9.88898 13.2219 9.8449 13.5395C9.80039 13.8573 9.55095 14.0852 9.28754 14.0483C9.02391 14.0119 8.84629 13.7244 8.89059 13.4066ZM12.1819 4.83907C12.1565 4.56921 11.9172 4.37159 11.6473 4.39718C11.4028 4.4204 11.1142 4.45739 10.8095 4.49653C10.2219 4.572 9.51483 4.66167 8.96069 4.66834C8.72308 4.38879 8.32398 4.2516 7.96659 4.31117C7.21785 3.67962 6.27128 2.82916 5.83046 2.32771C5.65156 2.1245 5.34191 2.10451 5.13827 2.28341C4.93507 2.46232 4.91507 2.77197 5.09355 2.97539C5.57866 3.52673 6.52201 4.37116 7.24968 4.98873C7.2486 4.99325 7.24688 4.99755 7.24559 5.00228C7.07442 5.69038 7.12453 6.45461 6.72994 7.06573C6.52093 7.38979 6.53297 7.7061 6.6693 7.96005C6.67059 7.99295 6.6721 8.02607 6.67661 8.05918C6.80327 8.99328 6.51792 9.90308 5.87927 10.5923C5.30686 11.2096 6.22978 12.1368 6.80391 11.5169C7.62125 10.6346 7.99326 9.5801 7.98831 8.43635C8.0453 8.41162 8.10056 8.38044 8.1541 8.34259C8.34247 8.45463 8.50245 8.60214 8.58696 8.81287C8.77038 9.26745 8.56804 9.79514 8.39881 10.22C8.0868 11.0062 9.32904 11.4163 9.63869 10.6368C9.93607 9.88803 10.1294 8.97651 9.75093 8.21594C9.53138 7.77534 9.19142 7.45515 8.79339 7.21776C8.93962 6.70964 8.98864 6.18152 9.10885 5.64695C9.68363 5.62932 10.339 5.54545 10.9345 5.46912C11.231 5.43084 11.5116 5.39493 11.7404 5.37321C11.7845 5.36891 11.8262 5.35902 11.8673 5.34375C12.0692 5.26806 12.2032 5.064 12.1819 4.83907Z" fill="#121212"/>
</svg>
